<svg xmlns="http://www.w3.org/2000/svg" viewBox="0 0 186 180">
  <defs>
    <style>
      .a {
        fill: #f9c766;
      }
    </style>
  </defs>
  <title>fav-logo</title>
  <g>
    <ellipse cx="93" cy="90" rx="92.5" ry="89.5"/>
    <path d="M96,7c50.7,0,92,39.9,92,89s-41.3,89-92,89S4,145.1,4,96,45.3,7,96,7m0-1C44.6,6,3,46.3,3,96s41.6,90,93,90,93-40.3,93-90S147.4,6,96,6Z" transform="translate(-3 -6)"/>
  </g>
  <g>
    <path class="a" d="M61.5,60.1c-14.4,0-21.1,9.8-21.1,21.2,0,22.2,25.2,17.6,25.2,35.5,0,7.5-4.4,15.6-14.7,15.6-12.3,0-14.2-11.6-15.5-23.7,0,0-8.7-1.1-10.1,8.6s6.6,12.8,6.6,12.8a74.4,74.4,0,0,0,19.2,3c17.1,0,23.1-10.3,23.1-21.9,0-24.1-25.6-19.5-25.6-36.4,0-7.3,4.7-13.9,13.3-13.9s12.9,8.1,14.4,22h.5l3-22c-6.2,1.7-11.2-.7-18.3-.7" transform="translate(-3 -6)"/>
    <path class="a" d="M123.6,114.7l-9.6-52c-1.5-7.7-4.5-11.9-9.5-11.7s-9.3,5.7-9.2,12.4h.2c8.7,0,9.7,6,7,18.3L99.3,95c-7,32.3-10.1,37.2-19.4,37.2v.7H102v-.7c-9.2,0-9.2-5-2.1-37.2l4.9-21.2,11,57.1h.4l29.4-59.7L139,120c-1.1,7.8-3.2,12.3-9.7,12.3v.7h26.5v-.7c-6.6,0-7.2-3.9-6-12.9l6-42.8c1.2-7.9,2.9-13.1,9.9-13.1l.2-.8H149.1Z" transform="translate(-3 -6)"/>
  </g>
</svg>
