<?xml version="1.0" encoding="utf-8"?>
<!-- Generator: Adobe Illustrator 23.0.3, SVG Export Plug-In . SVG Version: 6.00 Build 0)  -->
<svg version="1.1" id="Слой_1" xmlns="http://www.w3.org/2000/svg" xmlns:xlink="http://www.w3.org/1999/xlink" x="0px" y="0px"
	 viewBox="0 0 299.1 106.5" style="enable-background:new 0 0 299.1 106.5;" xml:space="preserve">
<style type="text/css">
	.st0{fill:#F9C766;}
	.st1{fill:#4A4A4A;}
</style>
<path class="st0" d="M60.8,13.3c-24.1,0-35.2,12.6-35.2,27.2c0,28.5,41.9,22.6,41.9,45.7c0,9.6-7.3,20-24.4,20
	c-20.6,0-23.7-14.9-26-30.5c0,0-14.5-1.4-16.8,11.1c-2.4,14.1,11.1,16.5,11.1,16.5c7.9,1.8,20.6,3.8,31.9,3.8
	c28.6,0,38.6-13.3,38.6-28.1c0-31-42.7-25.1-42.7-46.9c0-9.4,7.9-17.8,22.2-17.8c15.8,0,21.5,10.4,24.1,28.2l0.7-0.1l5-28.3
	C81,16.3,72.6,13.3,60.8,13.3 M112.9,105.2c-8,0-11.5-4.9-11.5-11.6c0-7.7,4.5-12.4,8.7-14.8l16.5,21.1
	C123.1,102.9,118.4,105.2,112.9,105.2 M124.6,51c4.7,0,7.2,2.7,7.2,7.5c0,7.6-6.4,12.5-12.1,15.4l-1.7-2.3c-2.9-3.6-3.9-6.5-3.9-9.5
	C114,56.3,118,51,124.6,51 M129.4,80.9c6.5,0,9.4,4.2,4.6,11.3l-14.1-17.9c7.2-2.4,19.8-5.1,19.8-14c0-6.2-6.1-10-15.3-10
	c-11.5,0-20.1,6.3-20.1,15.4c0,4.4,2,8.2,4.2,11l1.2,1.6c-9.1,3.1-18.6,7.2-18.6,16c0,8.1,8.3,12.1,18.3,12.1
	c7.6,0,13.4-2.5,17.7-5.9l3.8,4.9h17l0.2-0.6c-3.8,0-5.3-1.2-8.6-5.4l-5.3-6.6c1.6-2.3,0.8-0.7,2.3-3.8c3-5.6,4-8,11.9-8l0.2-0.6
	h-19.1L129.4,80.9L129.4,80.9z"/>
<path class="st1" d="M228.4,81.9L212.3,15c-2.4-9.9-7.4-15.2-15.9-15c-8.6,0.2-15.5,7.3-15.3,15.9h0.3V16c14.5,0,16.2,7.7,11.7,23.5
	l-5.3,17.1c-11.6,41.5-16.8,47.8-32.3,47.8l-0.3,0.9h37.1l0.1-0.9c-15.2,0-15.3-6.4-3.4-47.8l8.2-27.3l18.3,73.4h0.7L265.3,26
	L254,88.7c-1.8,10.1-5.3,15.8-16.1,15.8l-0.1,0.9H282l0.3-0.9c-11,0-12.1-5-10.1-16.5l10.1-55.1c1.9-10.2,4.8-16.8,16.5-16.8l0.3-1
	h-28.2L228.4,81.9z"/>
</svg>
